<svg width="310" height="54" viewBox="0 0 310 54" fill="none" xmlns="http://www.w3.org/2000/svg">
<rect width="310" height="54" rx="27" fill="#5FBB9F"/>
<path d="M28.733 22.825C29.133 21.425 30.333 20.65 31.733 20.65C33.508 20.65 34.458 21.7 34.458 23.125C34.458 24.525 33.608 25.6 31.933 25.6H29.933V28.1H32.008C34.008 28.1 35.083 29.2 35.083 30.725C35.083 32.425 33.908 33.55 31.808 33.55C30.083 33.55 28.558 32.8 28.133 31.025H25.183C25.658 34.575 28.583 36.3 31.833 36.3C35.083 36.3 37.958 34.4 37.958 30.925C37.958 29.05 37.058 27.475 35.333 26.6C36.833 25.575 37.308 24.1 37.308 22.7C37.308 19.825 35.083 17.95 31.808 17.95C29.208 17.95 26.483 19.3 25.808 22.825H28.733ZM46.0814 36.25C47.8814 36.25 49.3814 35.325 50.0814 34.325V36H52.8314V23.5H50.0814V25.175C49.3814 24.175 47.8814 23.25 46.0814 23.25C42.6564 23.25 40.0564 26.175 40.0564 29.75C40.0564 33.325 42.6564 36.25 46.0814 36.25ZM46.5814 33.75C44.3814 33.75 42.8564 32 42.8564 29.75C42.8564 27.5 44.3814 25.75 46.5814 25.75C48.7814 25.75 50.3064 27.5 50.3064 29.75C50.3064 32 48.7814 33.75 46.5814 33.75ZM56.557 36H59.307V25.95H65.082V36H67.832V23.5H56.557V36ZM74.2729 41.225V34.325C74.9729 35.325 76.4979 36.25 78.2979 36.25C81.7229 36.25 84.3229 33.325 84.3229 29.75C84.3229 26.175 81.7229 23.25 78.2979 23.25C76.4979 23.25 74.9729 24.175 74.2729 25.175V23.5H71.5229V41.225H74.2729ZM77.7979 33.75C75.5729 33.75 74.0479 32 74.0479 29.75C74.0479 27.5 75.5729 25.75 77.7979 25.75C79.9979 25.75 81.5229 27.5 81.5229 29.75C81.5229 32 79.9979 33.75 77.7979 33.75ZM92.7734 36.25C96.4734 36.25 99.3234 33.375 99.3234 29.75C99.3234 26.125 96.4734 23.25 92.7734 23.25C89.0734 23.25 86.2234 26.125 86.2234 29.75C86.2234 33.375 89.0734 36.25 92.7734 36.25ZM92.7734 33.7C90.5484 33.7 88.9984 31.975 88.9984 29.75C88.9984 27.525 90.5484 25.8 92.7734 25.8C94.9734 25.8 96.5234 27.525 96.5234 29.75C96.5234 31.975 94.9734 33.7 92.7734 33.7ZM107.739 36.25C111.039 36.25 113.439 34.2 114.089 31.425H111.189C110.689 32.8 109.464 33.75 107.739 33.75C105.514 33.75 103.989 32.075 103.989 29.75C103.989 27.425 105.514 25.75 107.739 25.75C109.464 25.75 110.689 26.7 111.189 28.075H114.089C113.439 25.3 111.039 23.25 107.739 23.25C103.939 23.25 101.189 26.15 101.189 29.75C101.189 33.35 103.939 36.25 107.739 36.25ZM119.139 36L125.514 27.675V36H128.264V23.5H125.814L119.439 31.825V23.5H116.689V36H119.139ZM134.297 36H137.047V25.95H140.972V23.5H130.547V25.95H134.297V36ZM143.276 36H148.651C151.926 36 153.251 33.7 153.251 31.775C153.251 29.9 151.951 27.625 148.651 27.625H146.026V23.5H143.276V36ZM146.026 30.05H148.426C149.826 30.05 150.601 30.625 150.601 31.8C150.601 32.925 149.826 33.575 148.426 33.575H146.026V30.05ZM166.772 36.25C170.072 36.25 172.472 34.2 173.122 31.425H170.222C169.722 32.8 168.497 33.75 166.772 33.75C164.547 33.75 163.022 32.075 163.022 29.75C163.022 27.425 164.547 25.75 166.772 25.75C168.497 25.75 169.722 26.7 170.222 28.075H173.122C172.472 25.3 170.072 23.25 166.772 23.25C162.972 23.25 160.222 26.15 160.222 29.75C160.222 33.35 162.972 36.25 166.772 36.25ZM177.925 36H180.675V25.95H184.6V23.5H174.175V25.95H177.925V36ZM192.212 36.25C195.912 36.25 198.762 33.375 198.762 29.75C198.762 26.125 195.912 23.25 192.212 23.25C188.512 23.25 185.662 26.125 185.662 29.75C185.662 33.375 188.512 36.25 192.212 36.25ZM192.212 33.7C189.987 33.7 188.437 31.975 188.437 29.75C188.437 27.525 189.987 25.8 192.212 25.8C194.412 25.8 195.962 27.525 195.962 29.75C195.962 31.975 194.412 33.7 192.212 33.7ZM203.978 36L210.353 27.675V36H213.103V23.5H210.653L204.278 31.825V23.5H201.528V36H203.978ZM216.811 23.5V36H219.561V27.825L223.611 33.075L227.661 27.825V36H230.411V23.5H228.011L223.586 29.2L219.211 23.5H216.811ZM239.771 36.25C243.471 36.25 246.321 33.375 246.321 29.75C246.321 26.125 243.471 23.25 239.771 23.25C236.071 23.25 233.221 26.125 233.221 29.75C233.221 33.375 236.071 36.25 239.771 36.25ZM239.771 33.7C237.546 33.7 235.996 31.975 235.996 29.75C235.996 27.525 237.546 25.8 239.771 25.8C241.971 25.8 243.521 27.525 243.521 29.75C243.521 31.975 241.971 33.7 239.771 33.7ZM254.736 36.25C258.036 36.25 260.436 34.2 261.086 31.425H258.186C257.686 32.8 256.461 33.75 254.736 33.75C252.511 33.75 250.986 32.075 250.986 29.75C250.986 27.425 252.511 25.75 254.736 25.75C256.461 25.75 257.686 26.7 258.186 28.075H261.086C260.436 25.3 258.036 23.25 254.736 23.25C250.936 23.25 248.186 26.15 248.186 29.75C248.186 33.35 250.936 36.25 254.736 36.25ZM265.889 36H268.639V25.95H272.564V23.5H262.139V25.95H265.889V36ZM274.868 36H280.243C283.518 36 284.843 33.7 284.843 31.775C284.843 29.9 283.543 27.625 280.243 27.625H277.618V23.5H274.868V36ZM277.618 30.05H280.018C281.418 30.05 282.193 30.625 282.193 31.8C282.193 32.925 281.418 33.575 280.018 33.575H277.618V30.05Z" fill="white"/>
</svg>
