<svg width="122" height="39" viewBox="0 0 122 39" fill="none" xmlns="http://www.w3.org/2000/svg">
<g id="LOGO">
<path id="Vector" d="M17.9624 30.9385L5.6552 15.4037V30.9385H0V5.81299H4.87385L17.1452 21.3478V5.81299H22.8363V30.9385H17.9624Z" fill="black"/>
<path id="Vector_2" d="M26.1797 22.0561C26.1797 16.7477 30.1991 12.856 35.6054 12.856C40.7629 12.856 45.2801 16.3596 45.103 23.3312H31.4089C31.586 25.136 32.9741 26.7289 35.8902 26.7289C37.4554 26.7289 38.8782 26.0205 39.3054 25.0657H44.9259C43.788 28.7456 40.0892 31.3289 35.6067 31.3289C30.0926 31.3277 26.1797 27.4348 26.1797 22.0561ZM31.5513 19.9335H39.163C38.5934 17.8096 36.8511 17.1025 35.4643 17.1025C33.3295 17.1025 32.0132 18.3406 31.5513 19.9335Z" fill="black"/>
<path id="Vector_3" d="M49.9365 24.4619V17.8797H46.3789V13.2439H49.9365V8.32471H55.3069V13.2439H60.2872V17.8797H55.3069V23.3643C55.3069 25.4869 56.196 26.3727 58.3307 26.3727C59.1492 26.3727 59.7176 26.3025 60.2872 26.0536V30.7953C59.4687 31.043 58.5091 31.1489 57.0863 31.1489C53.1387 31.1501 49.9365 28.9918 49.9365 24.4619Z" fill="black"/>
<path id="Vector_4" d="M62.3516 22.0918C62.3516 16.9608 66.2992 12.856 71.7067 12.856C76.7577 12.856 79.9227 16.006 80.8836 20.1454H75.3349C74.6588 18.7299 73.5914 17.6679 71.7067 17.6679C69.4308 17.6679 67.7591 19.2953 67.7591 22.0918C67.7591 24.8883 69.4308 26.5157 71.7067 26.5157C73.5914 26.5157 74.6588 25.4538 75.3349 24.0383H80.8836C79.9239 28.1789 76.7577 31.3289 71.7067 31.3289C66.3004 31.3277 62.3516 27.2229 62.3516 22.0918Z" fill="black"/>
<path id="Vector_5" d="M83.9766 4.39697H89.3482V30.938H83.9766V4.39697Z" fill="black"/>
<path id="Vector_6" d="M99.1295 13.2441H93.7578V30.9385H99.1295V13.2441Z" fill="black"/>
<path id="Vector_7" d="M103.539 38.3343V13.2433H108.911V15.0124C109.587 14.0219 111.401 12.854 113.747 12.854C118.407 12.854 121.999 17.1005 121.999 22.0899C121.999 27.0792 118.407 31.3258 113.747 31.3258C111.4 31.3258 109.586 30.1579 108.911 29.1674V38.333H103.539V38.3343ZM116.593 22.0911C116.593 19.5435 114.957 17.7029 112.538 17.7029C110.119 17.7029 108.482 19.5435 108.482 22.0911C108.482 24.6388 110.119 26.4793 112.538 26.4793C114.957 26.4793 116.593 24.6388 116.593 22.0911Z" fill="black"/>
<path id="Vector_8" d="M102.163 5.46244L97.9605 8.19242L93.7578 10.9236V5.46244V0L97.9605 2.73122L102.163 5.46244Z" fill="#05E5AF"/>
</g>
</svg>
